<?xml version="1.0" encoding="UTF-8"?>
<svg id="Layer_1" data-name="Layer 1" xmlns="http://www.w3.org/2000/svg" viewBox="0 0 576 243.75">
  <defs>
    <style>
      .cls-1 {
        fill: #a7a4e0;
      }
    </style>
  </defs>
  <path class="cls-1" d="M142.3,112.29c.2.38.54.76,1.05,1.04,1.71.94,5.37,1.27,12.25,1.27h49.81c-.34-13.69-3.62-26.06-9.87-37.09-6.61-11.66-15.74-20.73-27.4-27.19-11.66-6.47-24.77-9.7-39.33-9.7-10.88,0-21.06,1.91-30.53,5.72-9.47,3.82-17.58,9.07-24.33,15.74-6.75,6.68-12.07,14.75-15.96,24.22s-5.83,19.68-5.83,30.64,1.94,21.17,5.83,30.64c3.89,9.47,9.21,17.54,15.96,24.22s14.86,11.93,24.33,15.74c9.47,3.82,19.65,5.72,30.53,5.72,14.56,0,27.67-3.23,39.33-9.7s20.79-15.53,27.4-27.19c6.25-11.03,9.53-23.4,9.87-37.1h-49.8c-6.89,0-10.54.34-12.25,1.28-.51.28-.85.65-1.05,1.03-.2.39-.32.83-.32,1.27,0,.39.09.79.3,1.16l5.93,10.91-10.91-5.93c-1.39-.75-3.11-.04-3.56,1.48l-3.53,11.91-3.53-11.91c-.45-1.51-2.18-2.23-3.56-1.48l-10.91,5.93,5.93-10.91c.75-1.39.04-3.11-1.48-3.56l-11.91-3.53,11.91-3.53c1.51-.45,2.23-2.18,1.48-3.56l-5.93-10.91,10.91,5.93c1.39.75,3.11.04,3.56-1.48l3.53-11.91,3.53,11.91c.45,1.51,2.18,2.23,3.56,1.48l10.91-5.93-5.93,10.91c-.44.8-.36,1.7.02,2.43v.03Z"/>
  <polygon class="cls-1" points="256.07 69.04 240.12 69.04 240.12 56.63 235.36 56.63 235.36 86.16 240.12 86.16 240.12 73.55 256.07 73.55 256.07 86.16 260.84 86.16 260.84 56.63 256.07 56.63 256.07 69.04"/>
  <path class="cls-1" d="M285.92,70.63c-.94-1.63-2.24-2.9-3.91-3.82-1.65-.92-3.51-1.38-5.56-1.38s-3.91.46-5.57,1.39-2.96,2.2-3.89,3.82c-.94,1.62-1.41,3.42-1.41,5.42s.47,3.8,1.41,5.42c.93,1.62,2.23,2.89,3.89,3.82s3.51,1.39,5.57,1.39,3.91-.46,5.56-1.38c1.67-.92,2.97-2.19,3.91-3.82.94-1.62,1.41-3.43,1.41-5.43s-.47-3.81-1.41-5.43ZM280.98,80.72c-1.21,1.21-2.72,1.81-4.53,1.81s-3.33-.6-4.53-1.81-1.8-2.76-1.8-4.66.6-3.45,1.8-4.66c1.2-1.21,2.71-1.82,4.53-1.82s3.32.61,4.53,1.82,1.82,2.76,1.82,4.66-.61,3.45-1.82,4.66Z"/>
  <path class="cls-1" d="M309.46,68.44c-1.94-2.01-4.34-3.01-7.19-3.01-2.69,0-4.8.97-6.33,2.93v-2.4h-4.41v28.64h4.41v-10.84c1.53,1.95,3.64,2.93,6.33,2.93,2.85,0,5.25-1,7.19-3.01,1.94-2.02,2.91-4.55,2.91-7.62s-.97-5.6-2.91-7.62h0ZM306.17,80.67c-1.11,1.24-2.59,1.86-4.43,1.86s-3.27-.61-4.4-1.83-1.7-2.77-1.7-4.64.57-3.42,1.7-4.64c1.13-1.23,2.6-1.84,4.4-1.84s3.32.63,4.43,1.87c1.11,1.24,1.67,2.78,1.67,4.61s-.56,3.36-1.67,4.61Z"/>
  <path class="cls-1" d="M334.96,76.04c-.01-3.15-.9-5.71-2.67-7.67-1.76-1.96-4.06-2.94-6.89-2.94-2.98,0-5.4.98-7.26,2.94-1.86,1.96-2.8,4.52-2.8,7.69s.96,5.74,2.88,7.7c1.92,1.95,4.41,2.93,7.46,2.93,3.32,0,6.09-.95,8.31-2.85l-2.19-3.14c-1.79,1.42-3.74,2.13-5.85,2.13-1.53,0-2.84-.42-3.94-1.28-1.1-.85-1.79-2.14-2.07-3.87h14.94c.05-.67.08-1.22.08-1.64h0ZM319.96,74.33c.24-1.53.81-2.75,1.72-3.64s2.12-1.34,3.64-1.34c1.39,0,2.53.44,3.43,1.31.89.87,1.46,2.09,1.7,3.67h-10.49Z"/>
  <path class="cls-1" d="M354.58,80.98c-1.31.79-2.96,1.19-4.94,1.19-1.69,0-3.4-.31-5.13-.92s-3.11-1.39-4.13-2.33l-2.6,3.8c1.46,1.27,3.28,2.24,5.45,2.93s4.31,1.03,6.42,1.03,4.13-.35,5.9-1.04c1.76-.7,3.19-1.76,4.29-3.19,1.1-1.44,1.65-3.12,1.65-5.07,0-4.54-3.17-7.25-9.52-8.12l-2.05-.27c-2.07-.3-3.61-.74-4.62-1.33-1.01-.59-1.52-1.46-1.52-2.62,0-1.33.61-2.4,1.83-3.2s2.83-1.2,4.81-1.2c2.88,0,5.65.84,8.29,2.53l2.43-3.86c-3.18-2.13-6.74-3.19-10.67-3.19-2.16,0-4.12.35-5.85,1.05-1.74.7-3.14,1.75-4.2,3.17s-1.59,3.09-1.59,5c0,1.05.16,2.02.5,2.89.33.87.77,1.6,1.31,2.18.54.59,1.2,1.1,1.97,1.53s1.56.77,2.37,1.01c.81.24,1.67.42,2.6.55l2.3.32c2.25.31,3.92.77,5.01,1.38s1.63,1.48,1.63,2.6c0,1.32-.65,2.38-1.96,3.18h.02Z"/>
  <path class="cls-1" d="M384.12,68.44c-1.94-2.01-4.33-3.01-7.19-3.01-2.69,0-4.8.97-6.33,2.93v-2.4h-4.41v28.64h4.41v-10.84c1.53,1.95,3.64,2.93,6.33,2.93,2.86,0,5.25-1,7.19-3.01,1.94-2.02,2.92-4.55,2.92-7.62s-.98-5.6-2.92-7.62h0ZM380.83,80.67c-1.11,1.24-2.58,1.86-4.43,1.86s-3.27-.61-4.4-1.83-1.69-2.77-1.69-4.64.56-3.42,1.69-4.64c1.13-1.23,2.6-1.84,4.4-1.84s3.32.63,4.43,1.87c1.11,1.24,1.67,2.78,1.67,4.61s-.56,3.36-1.67,4.61Z"/>
  <path class="cls-1" d="M395.66,68.23v-2.28h-4.37v20.21h4.41v-11.12c0-1.69.44-3.01,1.33-3.98.89-.96,2.04-1.45,3.48-1.45,1.29,0,2.41.25,3.35.74l1.05-4.37c-.95-.38-2.09-.57-3.39-.57-2.62,0-4.57.94-5.87,2.81h.01Z"/>
  <rect class="cls-1" x="408.12" y="65.96" width="4.43" height="20.21"/>
  <path class="cls-1" d="M410.32,62.05c.87,0,1.61-.29,2.21-.89.6-.59.91-1.32.91-2.19s-.3-1.61-.91-2.21-1.34-.91-2.21-.91-1.6.3-2.19.91c-.59.6-.89,1.34-.89,2.21s.29,1.61.89,2.19c.59.59,1.32.89,2.19.89Z"/>
  <path class="cls-1" d="M432.46,74.92v11.24h4.43v-12.7c0-2.36-.77-4.29-2.3-5.79s-3.5-2.25-5.91-2.25c-2.77,0-4.84,1-6.2,3v-2.47h-4.39v20.21h4.43v-11.2c0-1.66.5-2.96,1.5-3.91,1-.95,2.24-1.43,3.73-1.43s2.65.46,3.47,1.38,1.23,2.22,1.23,3.91h.01Z"/>
  <path class="cls-1" d="M456.99,65.96v2.42c-1.56-1.97-3.8-2.95-6.73-2.95-1.16,0-2.3.24-3.41.73-1.11.48-2.11,1.16-3,2.02-.88.87-1.6,1.96-2.14,3.3-.54,1.34-.81,2.79-.81,4.37s.27,3.03.81,4.37c.54,1.33,1.26,2.43,2.14,3.29.89.87,1.89,1.55,3,2.03,1.11.49,2.25.73,3.41.73,2.94,0,5.19-.99,6.73-2.95v1.62c0,1.9-.55,3.38-1.66,4.44-1.11,1.06-2.7,1.59-4.75,1.59-2.33,0-4.62-.68-6.86-2.04l-1.6,3.73c1.04.75,2.33,1.32,3.85,1.73,1.53.41,3.06.61,4.61.61,3.38,0,6.03-.91,7.95-2.74,1.93-1.83,2.89-4.33,2.89-7.51v-18.79h-4.43ZM455.71,80.33c-1.11,1.19-2.55,1.78-4.3,1.78s-3.27-.6-4.35-1.81c-1.09-1.21-1.63-2.69-1.63-4.45s.54-3.26,1.63-4.46c1.08-1.21,2.53-1.81,4.35-1.81s3.19.6,4.3,1.78c1.11,1.19,1.66,2.69,1.66,4.49s-.55,3.29-1.66,4.48Z"/>
  <path class="cls-1" d="M255.6,103.38c-2.15-1.09-4.51-1.63-7.09-1.63-2.17,0-4.19.38-6.08,1.14s-3.5,1.8-4.84,3.13c-1.34,1.33-2.4,2.93-3.18,4.82-.77,1.88-1.16,3.92-1.16,6.1s.39,4.21,1.16,6.1c.77,1.88,1.83,3.49,3.18,4.82,1.34,1.33,2.96,2.37,4.84,3.13,1.88.76,3.91,1.14,6.08,1.14,2.53,0,4.85-.53,6.95-1.59s3.77-2.52,5.01-4.38l-2.74-2.02c-1,1.49-2.3,2.65-3.9,3.48-1.61.83-3.38,1.25-5.32,1.25-1.64,0-3.18-.29-4.62-.88-1.44-.58-2.67-1.39-3.71-2.41-1.04-1.03-1.86-2.29-2.46-3.78s-.9-3.11-.9-4.85.3-3.36.9-4.85c.6-1.49,1.42-2.75,2.46-3.77,1.04-1.03,2.28-1.83,3.71-2.42,1.44-.58,2.98-.88,4.62-.88,1.93,0,3.7.42,5.32,1.27,1.62.84,2.92,2,3.9,3.48l2.83-1.9c-1.15-1.9-2.81-3.39-4.96-4.48v-.02Z"/>
  <path class="cls-1" d="M281.17,111.72v2.98c-1.76-2.25-4.19-3.38-7.3-3.38-2.83,0-5.19.99-7.11,2.95-1.91,1.97-2.87,4.45-2.87,7.43s.96,5.46,2.87,7.44c1.92,1.97,4.28,2.96,7.11,2.96,3.12,0,5.56-1.12,7.3-3.38v2.98h3.14v-19.98h-3.14ZM279.36,127.03c-1.34,1.41-3.04,2.12-5.11,2.12s-3.81-.72-5.15-2.16c-1.33-1.43-2-3.19-2-5.29s.66-3.85,1.99-5.28,3.05-2.15,5.16-2.15,3.77.71,5.11,2.13c1.33,1.41,2,3.18,2,5.3s-.67,3.91-2,5.33Z"/>
  <path class="cls-1" d="M299.86,111.32c-1.34,0-2.6.26-3.8.78-1.19.52-2.17,1.34-2.93,2.47v-2.85h-3.12v19.98h3.17v-11.26c0-1.84.59-3.32,1.76-4.44s2.63-1.68,4.36-1.68c1.83,0,3.25.53,4.25,1.59,1.01,1.06,1.51,2.54,1.51,4.44v11.35h3.14v-12.38c0-2.4-.77-4.34-2.31-5.8s-3.54-2.19-6.02-2.19h-.01Z"/>
  <path class="cls-1" d="M330.09,128.96l-1.96-2.15c-1.6,1.56-3.45,2.34-5.53,2.34s-3.69-.7-5.03-2.11-2.01-3.18-2.01-5.34.67-3.91,2.01-5.32c1.34-1.41,3.02-2.11,5.03-2.11s3.87.77,5.46,2.32l2.02-2.13c-.89-1.01-1.97-1.79-3.25-2.33s-2.66-.81-4.15-.81c-3.04,0-5.52.98-7.45,2.95-1.93,1.97-2.89,4.44-2.89,7.43s.96,5.48,2.89,7.45c1.93,1.97,4.41,2.96,7.45,2.96,1.47,0,2.85-.27,4.13-.81s2.37-1.32,3.27-2.33h.01Z"/>
  <path class="cls-1" d="M351.48,121.64c-.02-3.03-.91-5.5-2.67-7.43-1.77-1.92-4.01-2.89-6.72-2.89-2.87,0-5.24.98-7.11,2.92-1.87,1.95-2.81,4.45-2.81,7.48s.95,5.58,2.83,7.5c1.89,1.92,4.31,2.88,7.28,2.88,3.29,0,6.02-1.04,8.2-3.12l-1.68-2.15c-1.83,1.67-3.94,2.51-6.33,2.51-1.89,0-3.48-.57-4.79-1.7-1.31-1.13-2.07-2.74-2.28-4.82h16.01c.05-.35.07-.75.07-1.18h0ZM335.44,120.26c.26-1.84.97-3.32,2.14-4.45,1.16-1.12,2.65-1.68,4.45-1.68,1.7,0,3.11.55,4.25,1.66,1.13,1.12,1.79,2.61,1.99,4.47h-12.83Z"/>
  <path class="cls-1" d="M361.77,112.16c-1.02.56-1.88,1.35-2.56,2.37v-2.81h-3.12v19.98h3.14v-11.18c0-1.87.5-3.37,1.5-4.52,1-1.14,2.29-1.71,3.86-1.71,1.32,0,2.48.27,3.46.8l.76-3.1c-.98-.45-2.21-.68-3.67-.68-1.23,0-2.35.28-3.36.83v.02Z"/>
  <path class="cls-1" d="M399.98,117.63c-.89-.59-1.85-1.06-2.9-1.41-1.05-.35-2.22-.6-3.51-.76l-2.81-.34c-2.31-.28-4.02-.81-5.14-1.58-1.12-.77-1.68-1.84-1.68-3.21,0-1.64.71-2.95,2.12-3.9,1.41-.95,3.25-1.43,5.52-1.43,3.23,0,6.2.92,8.9,2.76l1.73-2.74c-3.08-2.15-6.62-3.23-10.61-3.23-2.08,0-3.96.33-5.63,1s-3.01,1.67-4.03,3.01c-1.01,1.34-1.52,2.92-1.52,4.73,0,2.33.78,4.14,2.35,5.42s3.69,2.08,6.36,2.38l2.97.34c2.39.26,4.18.79,5.37,1.56s1.78,1.86,1.78,3.27c0,1.7-.77,3.02-2.3,3.97-1.53.94-3.5,1.41-5.89,1.41-1.83,0-3.64-.32-5.42-.96-1.79-.64-3.22-1.42-4.3-2.33l-1.85,2.7c1.41,1.14,3.16,2.06,5.26,2.75s4.21,1.05,6.34,1.05,4.12-.33,5.85-.98c1.74-.65,3.14-1.66,4.22-3.03,1.08-1.36,1.62-2.99,1.62-4.87,0-1.23-.25-2.32-.74-3.27-.49-.96-1.18-1.73-2.07-2.32h.01Z"/>
  <path class="cls-1" d="M422.3,123.07c0,2-.54,3.51-1.61,4.54-1.08,1.03-2.51,1.54-4.29,1.54s-3.22-.51-4.3-1.54c-1.08-1.02-1.63-2.54-1.63-4.54v-11.35h-3.14v11.64c0,1.43.24,2.72.73,3.85.48,1.13,1.15,2.05,1.99,2.75s1.8,1.23,2.88,1.59c1.08.36,2.23.54,3.47.54s2.37-.18,3.45-.54c1.08-.36,2.03-.89,2.88-1.59.84-.7,1.51-1.62,2-2.75.49-1.13.74-2.42.74-3.85v-11.64h-3.17v11.35Z"/>
  <path class="cls-1" d="M448.48,114.27c-1.91-1.96-4.28-2.95-7.11-2.95-3.11,0-5.53,1.12-7.28,3.36v-2.96h-3.16v28.42h3.16v-11.39c1.75,2.23,4.17,3.35,7.28,3.35,2.83,0,5.2-.99,7.11-2.96,1.91-1.98,2.87-4.46,2.87-7.44s-.96-5.46-2.87-7.43ZM446.14,127.01c-1.32,1.42-3.04,2.14-5.15,2.14s-3.77-.71-5.1-2.12c-1.34-1.42-2.01-3.19-2.01-5.33s.67-3.89,2.01-5.3c1.33-1.42,3.03-2.13,5.1-2.13s3.79.72,5.13,2.15c1.33,1.43,2,3.18,2,5.28s-.66,3.88-1.98,5.31Z"/>
  <path class="cls-1" d="M473.29,114.27c-1.92-1.96-4.28-2.95-7.11-2.95-3.11,0-5.53,1.12-7.28,3.36v-2.96h-3.16v28.42h3.16v-11.39c1.75,2.23,4.17,3.35,7.28,3.35,2.83,0,5.19-.99,7.11-2.96,1.91-1.98,2.87-4.46,2.87-7.44s-.96-5.46-2.87-7.43ZM470.95,127.01c-1.32,1.42-3.04,2.14-5.15,2.14s-3.77-.71-5.1-2.12c-1.34-1.42-2.01-3.19-2.01-5.33s.67-3.89,2.01-5.3c1.33-1.42,3.03-2.13,5.1-2.13s3.79.72,5.13,2.15c1.33,1.43,2,3.18,2,5.28s-.66,3.88-1.98,5.31Z"/>
  <path class="cls-1" d="M497.47,114.3c-2.01-1.99-4.51-2.98-7.52-2.98s-5.5.99-7.5,2.98c-2,1.98-3.01,4.45-3.01,7.4s1,5.44,3,7.43c1.99,1.98,4.5,2.97,7.51,2.97s5.51-.99,7.52-2.97c2-1.99,3-4.46,3-7.43s-1-5.42-3-7.4ZM495.16,127.04c-1.39,1.4-3.13,2.11-5.21,2.11s-3.82-.71-5.21-2.11c-1.39-1.41-2.09-3.19-2.09-5.34s.7-3.91,2.09-5.32c1.39-1.4,3.13-2.11,5.21-2.11s3.82.71,5.21,2.11c1.39,1.41,2.09,3.18,2.09,5.32s-.7,3.93-2.09,5.34Z"/>
  <path class="cls-1" d="M510.77,112.16c-1.02.56-1.88,1.35-2.56,2.37v-2.81h-3.12v19.98h3.14v-11.18c0-1.87.5-3.37,1.5-4.52,1-1.14,2.29-1.71,3.86-1.71,1.32,0,2.48.27,3.46.8l.76-3.1c-.98-.45-2.21-.68-3.67-.68-1.23,0-2.35.28-3.36.83v.02Z"/>
  <path class="cls-1" d="M535.71,127.73c-1.29.94-2.69,1.41-4.2,1.41-1.21,0-2.17-.37-2.89-1.12-.72-.74-1.08-1.87-1.08-3.37v-10.08h8.63v-2.85h-8.63v-6.35h-3.15v6.35h-4.37v2.85h4.37v10.15c0,2.46.6,4.31,1.78,5.54,1.19,1.23,2.88,1.85,5.07,1.85s4.18-.66,5.93-1.98l-1.48-2.38.02-.02Z"/>
  <path class="cls-1" d="M240.19,153.85c1.04-1.03,2.28-1.83,3.71-2.42,1.44-.58,2.98-.88,4.62-.88,1.93,0,3.7.42,5.32,1.27,1.62.84,2.92,2,3.9,3.48l2.83-1.9c-1.15-1.9-2.81-3.39-4.96-4.48-2.15-1.09-4.51-1.63-7.09-1.63-2.17,0-4.19.38-6.08,1.14s-3.5,1.8-4.84,3.13-2.4,2.93-3.18,4.82c-.77,1.88-1.16,3.92-1.16,6.1s.39,4.21,1.16,6.1c.77,1.88,1.83,3.49,3.18,4.82,1.34,1.33,2.96,2.37,4.84,3.13,1.88.76,3.91,1.14,6.08,1.14,2.53,0,4.85-.53,6.95-1.59,2.1-1.06,3.77-2.52,5.01-4.38l-2.74-2.02c-1,1.49-2.3,2.65-3.9,3.48-1.61.83-3.38,1.25-5.32,1.25-1.64,0-3.18-.29-4.62-.88-1.44-.58-2.67-1.39-3.71-2.41-1.04-1.03-1.86-2.29-2.46-3.78s-.9-3.11-.9-4.85.3-3.36.9-4.85c.6-1.49,1.42-2.75,2.46-3.77v-.02Z"/>
  <path class="cls-1" d="M283.19,167.18c-.01-3.03-.9-5.5-2.66-7.43-1.77-1.92-4.01-2.89-6.72-2.89-2.87,0-5.24.98-7.11,2.92-1.87,1.95-2.81,4.44-2.81,7.48s.95,5.58,2.83,7.5c1.88,1.92,4.31,2.88,7.28,2.88,3.29,0,6.02-1.04,8.2-3.12l-1.68-2.15c-1.83,1.67-3.94,2.5-6.33,2.5-1.89,0-3.48-.56-4.79-1.69s-2.07-2.74-2.28-4.82h16.01c.04-.35.06-.75.06-1.18h0ZM267.16,165.8c.26-1.84.97-3.32,2.13-4.45,1.17-1.12,2.66-1.68,4.45-1.68s3.12.55,4.26,1.66c1.13,1.12,1.79,2.61,1.99,4.47h-12.83Z"/>
  <path class="cls-1" d="M297.43,156.86c-1.34,0-2.6.26-3.8.78-1.19.52-2.17,1.34-2.93,2.47v-2.85h-3.12v19.98h3.17v-11.26c0-1.84.59-3.32,1.76-4.44s2.63-1.68,4.36-1.68c1.83,0,3.25.53,4.25,1.59,1.01,1.06,1.51,2.54,1.51,4.44v11.35h3.14v-12.38c0-2.4-.77-4.34-2.31-5.8s-3.54-2.19-6.02-2.19h-.01Z"/>
  <path class="cls-1" d="M320.16,174.68c-1.21,0-2.17-.37-2.89-1.12-.72-.74-1.08-1.87-1.08-3.37v-10.08h8.63v-2.85h-8.63v-6.35h-3.15v6.35h-4.37v2.85h4.37v10.15c0,2.46.6,4.31,1.78,5.54,1.19,1.23,2.88,1.85,5.07,1.85s4.18-.66,5.93-1.98l-1.48-2.38c-1.29.94-2.69,1.41-4.2,1.41l.02-.02Z"/>
  <path class="cls-1" d="M334.91,157.69c-1.02.56-1.88,1.35-2.56,2.37v-2.81h-3.12v19.98h3.14v-11.18c0-1.87.5-3.37,1.5-4.52,1-1.14,2.29-1.71,3.86-1.71,1.32,0,2.48.27,3.46.8l.76-3.1c-.98-.45-2.21-.68-3.67-.68-1.23,0-2.35.28-3.36.83v.02Z"/>
  <path class="cls-1" d="M362.8,167.18c-.01-3.03-.9-5.5-2.67-7.43-1.76-1.92-4-2.89-6.71-2.89-2.87,0-5.24.98-7.11,2.92-1.87,1.95-2.81,4.44-2.81,7.48s.95,5.58,2.83,7.5c1.88,1.92,4.31,2.88,7.28,2.88,3.29,0,6.02-1.04,8.2-3.12l-1.69-2.15c-1.82,1.67-3.93,2.5-6.32,2.5-1.89,0-3.49-.56-4.79-1.69-1.31-1.13-2.07-2.74-2.28-4.82h16.01c.04-.35.06-.75.06-1.18h0ZM346.77,165.8c.26-1.84.96-3.32,2.13-4.45,1.17-1.12,2.65-1.68,4.45-1.68s3.12.55,4.25,1.66c1.13,1.12,1.8,2.61,2,4.47h-12.83Z"/>
</svg>